<?xml version="1.0" encoding="UTF-8"?>
<svg id="a" data-name="Layer 1" xmlns="http://www.w3.org/2000/svg" viewBox="0 0 1080 1080">
  <defs>
    <style>
      .b {
        fill: #863bf2;
      }

      .b, .c {
        stroke-width: 0px;
      }

      .c {
        fill: #16d1f5;
      }
    </style>
  </defs>
  <g>
    <path class="c" d="M257.14,619.97h-108.31v-108.31c24.06,46.31,62.02,84.26,108.31,108.31Z"/>
    <path class="b" d="M148.83,375.61v19.89c0,123.97,100.49,224.47,224.46,224.47h18.28v-244.36h-242.74ZM340.1,565.31c-69.36-13.54-124.03-68.64-136.92-138.24h136.92v138.24Z"/>
    <path class="b" d="M148.83,375.61v19.89c0,123.97,100.49,224.47,224.46,224.47h18.28v-244.36h-242.74ZM340.1,565.31c-69.36-13.54-124.03-68.64-136.92-138.24h136.92v138.24Z"/>
    <path class="b" d="M148.83,375.61v19.89c0,123.97,100.49,224.47,224.46,224.47h18.28v-244.36h-242.74ZM340.1,565.31c-69.36-13.54-124.03-68.64-136.92-138.24h136.92v138.24Z"/>
  </g>
  <g>
    <path class="b" d="M491.97,443.72c0,32.3-25.49,37.81-44.29,37.81h-12.31c-.65,0-1.08-.43-1.08-.86v-73.9c0-.43.43-.87,1.08-.87h12.31c18.47,0,44.29,4.21,44.29,37.81ZM477.39,443.72c0-17.93-12.21-24.85-28.63-23.99v47.86c9.18.43,28.63-.54,28.63-23.87Z"/>
    <path class="b" d="M516.61,473l-2.92,7.99c-.11.33-.54.54-.97.54h-13.29c-.86,0-1.29-.54-.97-1.19l29.49-76.06c.32-.75,1.62-.75,1.95,0l29.49,76.06c.33.65-.11,1.19-.86,1.19h-13.4c-.32,0-.76-.21-.86-.54l-3.13-7.99h-24.52ZM536.49,460.25l-7.56-22.69-7.67,22.69h15.23Z"/>
    <path class="b" d="M631.14,483.91l-22.25-58.23-22.15,58.23c-.32.76-1.62.76-1.84,0l-29.49-76.82c-.32-.65.22-1.19.97-1.19h13.29c.43,0,.86.22.97.54l15.13,40.94,15.56-40.94c.11-.33.54-.54.97-.54h13.29c.43,0,.86.22.97.54l15.56,40.94,15.23-40.94c.11-.33.54-.54.97-.54h13.29c.86,0,1.3.54.97,1.19l-29.6,76.82c-.33.76-1.51.76-1.84,0Z"/>
    <path class="b" d="M710.23,481.1l-19.01-30.36h-5.29v29.93c0,.43-.43.86-1.08.86h-12.31c-.65,0-1.08-.43-1.08-.86v-43.11c0-.43.43-.87,1.08-.87h10.05l-11.13-17.5v-12.42c0-.43.43-.87,1.08-.87h24.63s25.71,0,25.71,22.37c0,13.29-8.53,18.58-15.88,20.85l19.45,31.11c.43.65,0,1.3-.76,1.3h-14.48c-.32,0-.86-.21-.97-.43ZM708.39,428.27c0-8.32-8.75-8.32-11.23-8.32h-9.07l10.48,16.64c4.11-.11,9.83-1.84,9.83-8.32Z"/>
    <path class="b" d="M748.27,473l-2.92,7.99c-.11.33-.54.54-.97.54h-13.29c-.87,0-1.3-.54-.97-1.19l29.49-76.06c.33-.75,1.62-.75,1.95,0l29.49,76.06c.32.65-.11,1.19-.87,1.19h-13.4c-.32,0-.75-.21-.86-.54l-3.13-7.99h-24.52ZM768.14,460.25l-7.56-22.69-7.67,22.69h15.23Z"/>
    <path class="b" d="M898.99,481.53h-12.43c-.21,0-.75-.11-.86-.32l-34.79-49.81v49.27c0,.43-.43.86-1.08.86h-12.42c-.54,0-.97-.43-.97-.86v-73.9c0-.43.43-.87.97-.87h12.53c.22,0,.76.11.87.33l34.89,49.8v-49.26c0-.43.43-.87,1.08-.87h12.21c.65,0,1.08.43,1.08.87v73.9c0,.43-.43.86-1.08.86Z"/>
    <path class="b" d="M930.98,436.7h29.71c.54,0,.97.43.97.87v11.99c0,.43-.43.86-.97.86h-29.71v17.07h35.87c.65,0,1.08.43,1.08.86v12.32c0,.43-.43.86-1.08.86h-49.26c-.65,0-1.08-.43-1.08-.86v-73.9c0-.43.43-.87,1.08-.87h48.29c.65,0,1.08.43,1.08.87v11.99c0,.43-.43.87-1.08.87h-34.89v17.07Z"/>
    <path class="b" d="M1018.06,418.87h-14.48v61.8c0,.43-.43.86-1.08.86h-12.21c-.65,0-1.08-.43-1.08-.86v-61.8h-14.48c-.65,0-1.08-.43-1.08-.87v-11.23c0-.43.43-.87,1.08-.87h43.32c.65,0,1.08.43,1.08.87v11.23c0,.43-.43.87-1.08.87Z"/>
  </g>
  <g>
    <path class="b" d="M461.79,589.72c-15.9,0-28.54-12.9-29.19-26.32-.26-4.43,0-13.03,6.91-22.15,7.43,6.77,12.64,11.2,12.64,11.2,0,0-3.78,5.08-2.61,10.95.91,4.56,5.6,8.99,11.6,8.99h52.12c4.69,0,7.43-2.74,7.43-7.82v-32.83h17.72v28.01c0,7.69,4.56,12.64,12.51,12.64h8.6v17.33h-7.56c-9.25,0-14.86-4.04-18.37-8.47-3.39,4.69-9.12,8.47-18.89,8.47h-52.9ZM481.46,533.3v14.98h-17.85v-14.98h17.85ZM507.26,533.3v14.98h-17.72v-14.98h17.72Z"/>
    <path class="b" d="M582.05,589.72h-23.71v-17.33h23.71v17.33Z"/>
    <path class="b" d="M604.59,589.72h-23.71v-17.33h23.71v17.33Z"/>
    <path class="b" d="M627.13,589.72h-23.71v-17.33h23.71v17.33Z"/>
    <path class="b" d="M649.67,589.72h-23.71v-17.33h23.71v17.33Z"/>
    <path class="b" d="M672.21,589.72h-23.71v-17.33h23.71v17.33Z"/>
    <path class="b" d="M671.56,589.72v-17.33h15.37c4.69,0,7.56-2.74,7.56-7.82v-32.83h17.59v31.79c0,7.43-1.69,26.19-23.58,26.19h-16.94ZM708.43,505.29v15.11h-17.72v-15.11h17.72Z"/>
    <path class="b" d="M814.62,558.7c0,18.5-11.47,31.14-30.62,31.14s-30.62-12.64-30.62-31.14,11.47-31.01,30.62-31.01h30.62v31.01ZM770.32,501.24v15.12h17.72v-15.12h-17.72ZM784.01,541.77c-10.82,0-12.51,10.16-12.51,16.94s1.69,16.94,12.51,16.94,12.51-9.9,12.51-16.94v-16.94h-12.51ZM796.12,501.24v15.12h17.72v-15.12h-17.72Z"/>
    <path class="b" d="M851.63,531.61h17.72v49.64c0,21.37-15.77,32.05-31.53,30.75-8.08-.65-14.46-3.65-14.46-3.65l-2.87-14.46s7.43,3,14.98,3c6.26,0,16.03-3.91,16.16-16.29v-48.99Z"/>
    <path class="b" d="M899.44,595.06c3,.91,7.17,1.82,11.34,1.82h.26c3.13,0,12.25-.13,15.24-7.17h-9.77c-17.46,0-30.75-13.03-30.75-29.71s11.99-28.27,30.75-28.27h28.28v53.42c0,20.46-16.81,26.84-30.1,26.84-3.52,0-7.95-.65-10.69-1.43l-4.56-15.5ZM927.07,547.37h-11.08c-7.69,0-12.12,6.64-12.12,12.64,0,6.52,4.43,12.38,12.12,12.38h11.08v-25.02Z"/>
    <path class="b" d="M995.86,548.54s0-6.13-7.56-6.13c-3,0-7.17,1.56-7.82,7.3h-16.55c.65-16.81,16.55-19.55,24.1-19.55,16.68,0,25.8,7.04,25.8,22.67v36.87h-52.64v-17.33h34.66v-23.84Z"/>
  </g>
</svg>